<svg width="97" height="88" viewBox="0 0 97 88" fill="none" xmlns="http://www.w3.org/2000/svg">
<g filter="url(#filter0_d_13_482)">
<path d="M31.9527 57.4551C31.1948 57.9051 30.2113 57.6621 29.7601 56.906L14.1503 30.8477C13.6991 30.0916 13.9427 29.1105 14.7007 28.6605L55.2051 4.51044C55.963 4.06038 56.9465 4.30341 57.3977 5.05951L73.0076 31.1178C73.4677 31.8739 73.2151 32.855 72.4572 33.305L31.9527 57.4551Z" fill="url(#paint0_linear_13_482)"/>
<path d="M16.8037 35.2684L60.0616 9.47925L66.4725 20.1805L23.2148 45.9695L16.8037 35.2684Z" fill="url(#paint1_linear_13_482)"/>
<path d="M75.5339 78.8853H9.87322C8.10471 78.8853 6.67004 77.4542 6.67004 75.6899V28.5691C6.67004 26.8048 8.10471 25.3737 9.87322 25.3737H75.5249C77.2934 25.3737 78.7281 26.8048 78.7281 28.5691V75.699C78.7371 77.4632 77.3024 78.8853 75.5339 78.8853Z" fill="url(#paint2_linear_13_482)"/>
<path d="M78.7371 75.5207V55.0791L52.2905 58.1305L67.7109 78.7071H75.5249C77.3024 78.7071 78.7371 77.2849 78.7371 75.5207Z" fill="url(#paint3_linear_13_482)"/>
<path d="M72.1581 75.1638H15.6304C14.1079 75.1638 12.8728 73.9317 12.8728 72.4129V31.8462C12.8728 30.3273 14.1079 29.0952 15.6304 29.0952H72.1504C73.6729 29.0952 74.9081 30.3273 74.9081 31.8462V72.4206C74.9158 73.9394 73.6807 75.1638 72.1581 75.1638Z" fill="url(#paint4_linear_13_482)"/>
<path d="M59.3659 61.6863H79.5234C80.4076 61.6863 81.1205 60.9753 81.1205 60.0931V44.5932C81.1205 43.7111 80.4076 43 79.5234 43H59.3659C54.1957 43 50 47.1855 50 52.3432C50 57.5008 54.1957 61.6863 59.3659 61.6863Z" fill="url(#paint5_linear_13_482)"/>
<g filter="url(#filter1_d_13_482)">
<path d="M54.772 51.9552C54.772 54.1574 56.5616 55.9426 58.7692 55.9426C60.9768 55.9426 62.7664 54.1574 62.7664 51.9552C62.7664 49.7529 60.9768 47.9677 58.7692 47.9677C56.5616 47.9677 54.772 49.7529 54.772 51.9552Z" fill="black"/>
</g>
<path fill-rule="evenodd" clip-rule="evenodd" d="M58.7689 48.7397C59.6598 48.7397 60.4665 49.0998 61.0504 49.6823C61.6335 50.2641 61.9944 51.0677 61.9944 51.9555C61.9944 52.8433 61.6335 53.647 61.0504 54.2287C60.4665 54.8112 59.6598 55.1713 58.7689 55.1713C57.878 55.1713 57.0714 54.8112 56.4875 54.2287C55.9043 53.647 55.5435 52.8433 55.5435 51.9555C55.5435 51.0677 55.9043 50.2641 56.4875 49.6823C57.0714 49.0998 57.878 48.7397 58.7689 48.7397Z" fill="url(#paint6_linear_13_482)" stroke="url(#paint7_linear_13_482)" stroke-width="1.54346"/>
<path d="M9.87322 25.1951C8.10471 25.1951 6.67004 26.6262 6.67004 28.3905V75.5204C6.67004 77.2846 8.10471 78.7158 9.87322 78.7158H20.0151V25.1951H9.87322Z" fill="url(#paint8_linear_13_482)"/>
<path d="M20.3156 29.0952L68.6958 78.7159L19.0751 77.4754L20.3156 29.0952Z" fill="url(#paint9_linear_13_482)"/>
<path opacity="0.7" d="M14.3899 29.0952C12.8673 29.0952 11.6322 30.3274 11.6322 31.8462V72.4218C11.6322 73.9407 12.8673 75.1728 14.3899 75.1728H20.0677V29.0952H14.3899Z" fill="url(#paint10_linear_13_482)"/>
<path d="M88.3529 51.9042C88.762 51.9042 89.1319 52.0682 89.3992 52.3348C89.666 52.6009 89.8302 52.969 89.8302 53.3764V73.9561C89.8302 74.3635 89.666 74.7315 89.3992 74.9977C89.1319 75.2643 88.762 75.4283 88.3529 75.4283H61.5893C58.3343 75.4283 55.386 74.1108 53.2515 71.9815C51.1176 69.8528 49.797 66.9125 49.797 63.6662C49.797 60.42 51.1176 57.4797 53.2515 55.351C55.386 53.2217 58.3343 51.9042 61.5893 51.9042H88.3529Z" fill="url(#paint11_linear_13_482)" stroke="url(#paint12_linear_13_482)" stroke-width="1.28622"/>
</g>
<defs>
<filter id="filter0_d_13_482" x="0.238966" y="0.426021" width="96.6655" height="87.4629" filterUnits="userSpaceOnUse" color-interpolation-filters="sRGB">
<feFlood flood-opacity="0" result="BackgroundImageFix"/>
<feColorMatrix in="SourceAlpha" type="matrix" values="0 0 0 0 0 0 0 0 0 0 0 0 0 0 0 0 0 0 127 0" result="hardAlpha"/>
<feOffset dy="2.57243"/>
<feGaussianBlur stdDeviation="3.21554"/>
<feColorMatrix type="matrix" values="0 0 0 0 0 0 0 0 0 0.742499 0 0 0 0 0.630418 0 0 0 0.4 0"/>
<feBlend mode="normal" in2="BackgroundImageFix" result="effect1_dropShadow_13_482"/>
<feBlend mode="normal" in="SourceGraphic" in2="effect1_dropShadow_13_482" result="shape"/>
</filter>
<filter id="filter1_d_13_482" x="45.7685" y="38.9641" width="38.8636" height="38.8441" filterUnits="userSpaceOnUse" color-interpolation-filters="sRGB">
<feFlood flood-opacity="0" result="BackgroundImageFix"/>
<feColorMatrix in="SourceAlpha" type="matrix" values="0 0 0 0 0 0 0 0 0 0 0 0 0 0 0 0 0 0 127 0" result="hardAlpha"/>
<feOffset dx="6.43108" dy="6.43108"/>
<feGaussianBlur stdDeviation="7.71729"/>
<feComposite in2="hardAlpha" operator="out"/>
<feColorMatrix type="matrix" values="0 0 0 0 0 0 0 0 0 0.733217 0 0 0 0 0.755378 0 0 0 0.5 0"/>
<feBlend mode="normal" in2="BackgroundImageFix" result="effect1_dropShadow_13_482"/>
<feBlend mode="normal" in="SourceGraphic" in2="effect1_dropShadow_13_482" result="shape"/>
</filter>
<linearGradient id="paint0_linear_13_482" x1="2979.62" y1="4.28467" x2="2979.62" y2="5343.9" gradientUnits="userSpaceOnUse">
<stop stop-color="#DEF9F7"/>
<stop offset="1" stop-color="#BAF1ED"/>
</linearGradient>
<linearGradient id="paint1_linear_13_482" x1="2500.24" y1="9.47925" x2="2500.24" y2="3658.51" gradientUnits="userSpaceOnUse">
<stop stop-color="#56EBE3"/>
<stop offset="1" stop-color="#2BD2C2"/>
</linearGradient>
<linearGradient id="paint2_linear_13_482" x1="3609.57" y1="25.3737" x2="3609.57" y2="5376.54" gradientUnits="userSpaceOnUse">
<stop stop-color="#4ADFD6"/>
<stop offset="1" stop-color="#24BCAD"/>
</linearGradient>
<linearGradient id="paint3_linear_13_482" x1="1374.62" y1="55.0791" x2="1374.62" y2="2417.87" gradientUnits="userSpaceOnUse">
<stop stop-color="#56EBE3"/>
<stop offset="1" stop-color="#2BD2C2"/>
</linearGradient>
<linearGradient id="paint4_linear_13_482" x1="3114.64" y1="29.0952" x2="3114.64" y2="4635.95" gradientUnits="userSpaceOnUse">
<stop stop-color="#77F5C4"/>
<stop offset="1" stop-color="#42E7DB"/>
</linearGradient>
<linearGradient id="paint5_linear_13_482" x1="1606.02" y1="43" x2="1606.02" y2="1911.63" gradientUnits="userSpaceOnUse">
<stop stop-color="#DEF9F7"/>
<stop offset="1" stop-color="#BAF1ED"/>
</linearGradient>
<linearGradient id="paint6_linear_13_482" x1="233.972" y1="452.839" x2="294.135" y2="690.42" gradientUnits="userSpaceOnUse">
<stop stop-color="#F7FDFD"/>
<stop offset="0.99214" stop-color="#E8FFFE"/>
</linearGradient>
<linearGradient id="paint7_linear_13_482" x1="321.897" y1="305.686" x2="377.76" y2="690.382" gradientUnits="userSpaceOnUse">
<stop stop-color="white"/>
<stop offset="1" stop-color="#EAFEFD"/>
</linearGradient>
<linearGradient id="paint8_linear_13_482" x1="673.924" y1="25.1951" x2="673.924" y2="5377.27" gradientUnits="userSpaceOnUse">
<stop stop-color="#4ADFD6"/>
<stop offset="1" stop-color="#24BCAD"/>
</linearGradient>
<linearGradient id="paint9_linear_13_482" x1="2500.11" y1="29.0952" x2="2500.11" y2="4991.17" gradientUnits="userSpaceOnUse">
<stop stop-color="#56EBE3"/>
<stop offset="1" stop-color="#2BD2C2"/>
</linearGradient>
<linearGradient id="paint10_linear_13_482" x1="433.408" y1="29.0952" x2="433.408" y2="4636.85" gradientUnits="userSpaceOnUse">
<stop stop-color="#DEF9F7"/>
<stop offset="1" stop-color="#BAF1ED"/>
</linearGradient>
<linearGradient id="paint11_linear_13_482" x1="1008.64" y1="816.786" x2="2389.81" y2="2232.03" gradientUnits="userSpaceOnUse">
<stop stop-color="#F5F5F5" stop-opacity="0.3"/>
<stop offset="1" stop-color="#CFCFCF" stop-opacity="0.1"/>
</linearGradient>
<linearGradient id="paint12_linear_13_482" x1="2807.48" y1="1544.7" x2="2163.05" y2="445.034" gradientUnits="userSpaceOnUse">
<stop stop-color="white" stop-opacity="0"/>
<stop offset="1" stop-color="white" stop-opacity="0.5"/>
</linearGradient>
</defs>
</svg>
