<svg width="23" height="20" viewBox="0 0 23 20" fill="none" xmlns="http://www.w3.org/2000/svg">
<path d="M1.67857 9.52393C2.05745 9.52393 2.42082 9.67444 2.68872 9.94234C2.95663 10.2103 3.10714 10.5736 3.10714 10.9525V17.143H19.2976V10.9525C19.2976 10.5736 19.4481 10.2103 19.716 9.94234C19.984 9.67444 20.3473 9.52393 20.7262 9.52393C21.1051 9.52393 21.4684 9.67444 21.7363 9.94234C22.0043 10.2103 22.1548 10.5736 22.1548 10.9525V18.5715C22.1548 18.9504 22.0043 19.3138 21.7363 19.5817C21.4684 19.8496 21.1051 20.0001 20.7262 20.0001H1.67857C1.29969 20.0001 0.936328 19.8496 0.668419 19.5817C0.40051 19.3138 0.25 18.9504 0.25 18.5715V10.9525C0.25 10.5736 0.40051 10.2103 0.668419 9.94234C0.936328 9.67444 1.29969 9.52393 1.67857 9.52393Z" fill="white"/>
<path d="M11.2024 0C11.5813 5.42668e-09 11.9447 0.15051 12.2126 0.418419C12.4805 0.686328 12.631 1.04969 12.631 1.42857V9.73714L13.8967 8.15524C14.0125 8.0048 14.1572 7.87896 14.3222 7.78507C14.4872 7.69118 14.6693 7.63112 14.8578 7.60841C15.0463 7.58569 15.2374 7.60078 15.42 7.65278C15.6026 7.70479 15.773 7.79267 15.9212 7.91128C16.0695 8.0299 16.1926 8.17688 16.2833 8.34362C16.3741 8.51036 16.4308 8.69353 16.4499 8.88242C16.4691 9.0713 16.4505 9.26211 16.395 9.4437C16.3396 9.62529 16.2486 9.79401 16.1272 9.94L12.3177 14.7019C12.1838 14.8691 12.0141 15.0041 11.8211 15.0968C11.628 15.1895 11.4166 15.2377 11.2024 15.2377C10.9883 15.2377 10.7768 15.1895 10.5838 15.0968C10.3908 15.0041 10.221 14.8691 10.0872 14.7019L6.27766 9.94C6.15385 9.79436 6.06053 9.62536 6.00322 9.443C5.94591 9.26064 5.92578 9.06864 5.94402 8.87836C5.96226 8.68808 6.01851 8.50339 6.10942 8.33525C6.20034 8.1671 6.32407 8.01891 6.4733 7.89945C6.62253 7.77999 6.79421 7.69169 6.97818 7.63979C7.16216 7.58789 7.35467 7.57344 7.54433 7.59729C7.73399 7.62114 7.91693 7.68281 8.08232 7.77865C8.24771 7.87449 8.39219 8.00255 8.50719 8.15524L9.77386 9.73619V1.42857C9.77386 1.04969 9.92437 0.686328 10.1923 0.418419C10.4602 0.15051 10.8235 0 11.2024 0Z" fill="white"/>
</svg>
