<svg width="71" height="86" viewBox="0 0 71 86" fill="none" xmlns="http://www.w3.org/2000/svg">
    <g filter="url(#filter0_d_13_440)">
        <path
            d="M64.87 31.5206C64.87 16.3678 51.6952 3.95532 35.435 3.95532C19.1748 3.95532 6 16.3678 6 31.5206C6 37.522 9.41501 45.2649 14.8992 50.976C20.3376 56.6359 24.3751 66.1629 24.3751 73.7607L46.4949 73.7863C46.4949 66.1886 50.5325 56.6786 55.9434 51.0016C61.4459 45.2307 64.87 36.7964 64.87 31.5206Z"
            fill="url(#paint0_linear_13_440)" />
        <mask id="mask0_13_440" style="mask-type:luminance" maskUnits="userSpaceOnUse" x="6" y="3"
            width="59" height="71">
            <path
                d="M64.8701 31.5201C64.8701 16.3673 51.6953 3.95483 35.4351 3.95483C19.1749 3.95483 6.00009 16.3673 6.00009 31.5201C6.00009 37.5215 9.4151 45.2644 14.8993 50.9755C20.3376 56.6354 24.3752 66.1625 24.3752 73.7602L46.495 73.7858C46.495 66.1881 50.5326 56.6781 55.9435 51.0011C61.4459 45.2302 64.8701 36.7959 64.8701 31.5201Z"
                fill="url(#paint1_linear_13_440)" />
        </mask>
        <g mask="url(#mask0_13_440)">
            <path
                d="M54.0033 40.8948C54.0033 40.8948 51.5245 48.444 40.3944 56.0677C29.2643 63.6914 40.9175 59.9877 36.2254 62.096L40.204 67.4427C44.8374 65.132 48.9503 62.4671 51.9972 59.0853C57.0083 53.4182 59.0564 48.3919 59.5348 43.6946L54.0033 36.2649V40.8948Z"
                fill="url(#paint2_linear_13_440)" />
        </g>
        <path
            d="M59.7019 31.0185C59.7019 18.4335 48.8499 8.12439 35.4566 8.12439C22.0632 8.12439 11.2113 18.4335 11.2113 31.0185C11.2113 36.0029 14.0242 42.4337 18.5414 47.177C23.021 51.8778 26.3467 59.7904 26.3467 66.1006V68.5751H44.5665V66.1219C44.5665 59.8117 47.8922 51.9132 52.3491 47.1983C56.8814 42.4053 59.7019 35.4002 59.7019 31.0185Z"
            fill="url(#paint3_linear_13_440)" />
        <mask id="mask1_13_440" style="mask-type:luminance" maskUnits="userSpaceOnUse" x="11" y="8"
            width="49" height="61">
            <path
                d="M59.7019 31.0185C59.7019 18.4335 48.8499 8.12439 35.4566 8.12439C22.0632 8.12439 11.2113 18.4335 11.2113 31.0185C11.2113 36.0029 14.0242 42.4337 18.5414 47.177C23.021 51.8778 26.3467 59.7904 26.3467 66.1006V68.5751H44.5665V66.1219C44.5665 59.8117 47.8922 51.9132 52.3491 47.1983C56.8814 42.4053 59.7019 35.4002 59.7019 31.0185Z"
                fill="url(#paint4_linear_13_440)" />
        </mask>
        <g mask="url(#mask1_13_440)">
            <path
                d="M44.554 64.5633L30.0603 44.5845L41.5566 20.6846L58.345 41.7053C57.0444 44.4189 54.9473 46.9444 53.1085 49.0168C49.6401 53.2958 47.8719 55.2838 45.7773 61.5507L44.554 64.5633Z"
                fill="url(#paint5_linear_13_440)" />
        </g>
        <g filter="url(#filter1_d_13_440)">
            <path
                d="M40.4054 19.7378C41.422 19.7378 42.0723 20.8187 41.5939 21.7133L37.7001 29.0034L42.6927 29.0041C43.9541 29.0041 44.6317 30.4528 43.8742 31.4119L43.7841 31.5163L31.8244 44.264C30.733 45.4344 28.812 44.3087 29.3054 42.7879L32.1949 33.827L28.1318 33.8273C27.19 33.8273 26.5322 32.8805 26.876 32.0009L31.3011 20.5951C31.503 20.0807 32.0038 19.7378 32.5569 19.7378H40.4054Z"
                fill="black" />
        </g>
        <path fill-rule="evenodd" clip-rule="evenodd"
            d="M40.4055 20.3632C40.6778 20.3632 40.9013 20.5077 41.0245 20.7125C41.1471 20.9163 41.1701 21.1798 41.0424 21.4187L36.6572 29.6287L42.6928 29.6294L31.367 43.8375C31.2227 43.9923 31.0553 44.0828 30.8822 44.1125C30.6894 44.1455 30.4941 44.1056 30.3258 44.0173C30.1536 43.9268 30.0074 43.7844 29.9239 43.6049C29.8535 43.4534 29.8313 43.2762 29.8718 43.0862L33.0531 33.2016L28.1318 33.202C27.8787 33.202 27.664 33.0742 27.5358 32.8878C27.4094 32.7039 27.3673 32.4619 27.4591 32.2271L31.8833 20.8235L40.4055 20.3632Z"
            fill="url(#paint6_linear_13_440)" stroke="url(#paint7_linear_13_440)"
            stroke-width="1.2507" />
        <path
            d="M42.2033 77.9553H27.2707C26.7492 77.9553 26.2734 77.6794 25.9898 77.2247L23.9585 73.9297H45.5155L43.4842 77.2247C43.2006 77.6794 42.7248 77.9553 42.2033 77.9553Z"
            fill="url(#paint8_linear_13_440)" />
        <path opacity="0.9"
            d="M45.3617 75.3925H25.238C23.2822 75.3925 21.6893 74.0581 21.6893 72.4031V60.2071C21.6893 58.5596 23.2734 57.2178 25.238 57.2178H45.3706C47.3263 57.2178 48.9192 58.5522 48.9192 60.2071V72.4106C48.9104 74.0581 47.3263 75.3925 45.3617 75.3925Z"
            fill="url(#paint9_linear_13_440)" />
        <path
            d="M37.8814 62.5952L22.5927 62.6121C21.7284 62.613 21.0269 61.9131 21.026 61.0488L21.026 61.0471C21.026 60.1815 21.7271 59.4796 22.5927 59.4786L37.8814 59.4617C38.7681 59.4617 39.4935 60.1667 39.4935 61.0284C39.4935 61.8988 38.7681 62.5952 37.8814 62.5952ZM22.2691 64.6841H48.3395C49.2048 64.6841 49.9062 65.3856 49.9062 66.2509C49.9062 67.1162 49.2048 67.8176 48.3395 67.8176H22.2691C21.4038 67.8176 20.7023 67.1162 20.7023 66.2509C20.7023 65.3856 21.4038 64.6841 22.2691 64.6841ZM48.3395 73.0401H33.765C32.8836 73.0401 32.1624 72.3351 32.1624 71.4734C32.1624 70.6117 32.8836 69.9066 33.765 69.9066H48.3395C49.2048 69.9066 49.9062 70.6081 49.9062 71.4734C49.9062 72.3387 49.2048 73.0401 48.3395 73.0401Z"
            fill="url(#paint10_linear_13_440)" />
        <path
            d="M40.3136 48.4071C41.3602 48.4071 42.3123 48.7596 43.0005 49.3394C43.652 49.8882 44.066 50.6434 44.066 51.486L44.066 66.1795C44.0615 67.0206 43.6456 67.7759 42.9912 68.3244C42.3031 68.9012 41.3525 69.2522 40.303 69.2522H16.0685C15.0218 69.2522 14.0698 68.8996 13.3816 68.3199C12.7301 67.7711 12.316 67.0159 12.316 66.1733V51.486C12.316 50.6452 12.7298 49.8884 13.3828 49.3383C14.0694 48.7599 15.0195 48.4071 16.0685 48.4071H40.3136Z"
            fill="url(#paint11_linear_13_440)" stroke="url(#paint12_linear_13_440)"
            stroke-width="1.04225" />
    </g>
    <defs>
        <filter id="filter0_d_13_440" x="0.788732" y="0.828561" width="69.2925" height="84.4224"
            filterUnits="userSpaceOnUse" color-interpolation-filters="sRGB">
            <feFlood flood-opacity="0" result="BackgroundImageFix" />
            <feColorMatrix in="SourceAlpha" type="matrix"
                values="0 0 0 0 0 0 0 0 0 0 0 0 0 0 0 0 0 0 127 0" result="hardAlpha" />
            <feOffset dy="2.08451" />
            <feGaussianBlur stdDeviation="2.60563" />
            <feColorMatrix type="matrix"
                values="0 0 0 0 0 0 0 0 0 0.742499 0 0 0 0 0.630418 0 0 0 0.4 0" />
            <feBlend mode="normal" in2="BackgroundImageFix" result="effect1_dropShadow_13_440" />
            <feBlend mode="normal" in="SourceGraphic" in2="effect1_dropShadow_13_440" result="shape" />
        </filter>
        <filter id="filter1_d_13_440" x="19.4877" y="12.442" width="42.4225" height="50.0256"
            filterUnits="userSpaceOnUse" color-interpolation-filters="sRGB">
            <feFlood flood-opacity="0" result="BackgroundImageFix" />
            <feColorMatrix in="SourceAlpha" type="matrix"
                values="0 0 0 0 0 0 0 0 0 0 0 0 0 0 0 0 0 0 127 0" result="hardAlpha" />
            <feOffset dx="5.21127" dy="5.21127" />
            <feGaussianBlur stdDeviation="6.25352" />
            <feComposite in2="hardAlpha" operator="out" />
            <feColorMatrix type="matrix"
                values="0 0 0 0 0 0 0 0 0 0.733217 0 0 0 0 0.755378 0 0 0 0.5 0" />
            <feBlend mode="normal" in2="BackgroundImageFix" result="effect1_dropShadow_13_440" />
            <feBlend mode="normal" in="SourceGraphic" in2="effect1_dropShadow_13_440" result="shape" />
        </filter>
        <linearGradient id="paint0_linear_13_440" x1="2949.5" y1="3.95532" x2="2949.5" y2="6987.05"
            gradientUnits="userSpaceOnUse">
            <stop stop-color="#56EBE3" />
            <stop offset="1" stop-color="#2BD2C2" />
        </linearGradient>
        <linearGradient id="paint1_linear_13_440" x1="2949.5" y1="3.95483" x2="2949.5" y2="6987.05"
            gradientUnits="userSpaceOnUse">
            <stop stop-color="#4ADFD7" />
            <stop offset="1" stop-color="#24BCAD" />
        </linearGradient>
        <linearGradient id="paint2_linear_13_440" x1="1242" y1="36.2649" x2="1242" y2="3154.05"
            gradientUnits="userSpaceOnUse">
            <stop stop-color="#4ADFD7" />
            <stop offset="1" stop-color="#24BCAD" />
        </linearGradient>
        <linearGradient id="paint3_linear_13_440" x1="2435.74" y1="8.12439" x2="2435.74"
            y2="6053.19" gradientUnits="userSpaceOnUse">
            <stop stop-color="#77F5C4" />
            <stop offset="1" stop-color="#42E7DB" />
        </linearGradient>
        <linearGradient id="paint4_linear_13_440" x1="2435.74" y1="8.12439" x2="2435.74"
            y2="6053.19" gradientUnits="userSpaceOnUse">
            <stop stop-color="#56EBE3" />
            <stop offset="1" stop-color="#2BD2C2" />
        </linearGradient>
        <linearGradient id="paint5_linear_13_440" x1="1444.29" y1="20.6846" x2="1444.29"
            y2="4408.56" gradientUnits="userSpaceOnUse">
            <stop stop-color="#56EBE3" />
            <stop offset="1" stop-color="#2BD2C2" />
        </linearGradient>
        <linearGradient id="paint6_linear_13_440" x1="626.159" y1="1514.76" x2="790.568"
            y2="2378.37" gradientUnits="userSpaceOnUse">
            <stop stop-color="#F7FDFD" />
            <stop offset="0.99214" stop-color="#E8FFFE" />
        </linearGradient>
        <linearGradient id="paint7_linear_13_440" x1="727.07" y1="968.468" x2="881.885" y2="2386.59"
            gradientUnits="userSpaceOnUse">
            <stop stop-color="white" />
            <stop offset="1" stop-color="#EAFEFD" />
        </linearGradient>
        <linearGradient id="paint8_linear_13_440" x1="1101.81" y1="73.9297" x2="1101.81"
            y2="476.487" gradientUnits="userSpaceOnUse">
            <stop stop-color="#4ADFD6" />
            <stop offset="1" stop-color="#24BCAD" />
        </linearGradient>
        <linearGradient id="paint9_linear_13_440" x1="1383.18" y1="57.2178" x2="1383.18"
            y2="1874.69" gradientUnits="userSpaceOnUse">
            <stop stop-color="#DEF9F7" />
            <stop offset="1" stop-color="#BAF1ED" />
        </linearGradient>
        <linearGradient id="paint10_linear_13_440" x1="1480.9" y1="59.4617" x2="1480.9" y2="1417.3"
            gradientUnits="userSpaceOnUse">
            <stop stop-color="#77F5EF" />
            <stop offset="1" stop-color="#42E7DB" />
        </linearGradient>
        <linearGradient id="paint11_linear_13_440" x1="772.769" y1="640.299" x2="1893.64"
            y2="1910.47" gradientUnits="userSpaceOnUse">
            <stop stop-color="#F5F5F5" stop-opacity="0.3" />
            <stop offset="1" stop-color="#CFCFCF" stop-opacity="0.1" />
        </linearGradient>
        <linearGradient id="paint12_linear_13_440" x1="2199.41" y1="1437.3" x2="1645.33"
            y2="391.666" gradientUnits="userSpaceOnUse">
            <stop stop-color="white" stop-opacity="0" />
            <stop offset="1" stop-color="white" stop-opacity="0.5" />
        </linearGradient>
    </defs>
</svg>