<svg width="76" height="76" viewBox="0 0 76 76" fill="none" xmlns="http://www.w3.org/2000/svg">
<circle cx="38" cy="38" r="38" fill="#56EBE3"/>
<circle cx="38" cy="38" r="32" fill="#75F4C4"/>
<path fill-rule="evenodd" clip-rule="evenodd" d="M34.0184 19H41.995C42.7085 19 43.3928 19.2834 43.8973 19.788C44.4019 20.2925 44.6853 20.9768 44.6853 21.6903V31.3281H54.3097C55.0232 31.3281 55.7075 31.6116 56.212 32.1161C56.7166 32.6206 57 33.3049 57 34.0184V42.0152C57 42.7287 56.7166 43.413 56.212 43.9175C55.7075 44.422 55.0232 44.7054 54.3097 44.7054H44.7055V54.1214C44.7055 54.8349 44.422 55.5191 43.9175 56.0237C43.413 56.5282 42.7287 56.8116 42.0152 56.8116H34.0184C33.3049 56.8116 32.6206 56.5282 32.1161 56.0237C31.6116 55.5191 31.3281 54.8349 31.3281 54.1214V44.7054H21.6903C20.9768 44.7054 20.2925 44.422 19.788 43.9175C19.2834 43.413 19 42.7287 19 42.0152V34.0318C19 33.3183 19.2834 32.6341 19.788 32.1295C20.2925 31.625 20.9768 31.3416 21.6903 31.3416H31.308V21.6903C31.308 20.9768 31.5914 20.2925 32.0959 19.788C32.6004 19.2834 33.2847 19 33.9982 19H34.0184Z" fill="white"/>
</svg>
