<svg width="19" height="20" viewBox="0 0 19 20" fill="none" xmlns="http://www.w3.org/2000/svg">
    <path
        d="M9.5 0.5C14.7472 0.5 19 4.75277 19 10C19 15.2472 14.7472 19.5 9.5 19.5C4.25277 19.5 0 15.2472 0 10C0 4.75277 4.25277 0.5 9.5 0.5ZM9.5 1.71277C7.828 1.71277 6.27162 2.20757 4.96991 3.05974C4.96426 3.44783 5.21894 3.76638 5.51323 3.70089C5.56255 3.68957 5.61026 3.67664 5.65877 3.66209L5.81723 3.60791L6.01532 3.52787L6.16085 3.46562C6.612 3.27238 6.84323 3.19719 7.15613 3.17536C7.72936 3.13574 8.25004 3.36294 8.80145 3.806C9.41106 4.29757 9.66413 4.75519 9.40298 5.34783C9.36584 5.4316 9.31917 5.51082 9.26392 5.58392L9.14506 5.73834C8.92677 6.01485 8.89523 6.09732 8.96962 6.22911C9.06502 6.40132 9.31323 6.4563 9.77247 6.43447L10.4678 6.38111C10.9125 6.35362 11.2464 6.37949 11.5722 6.4943C12.0514 6.66169 12.4673 6.97283 12.7631 7.38528C14.0131 9.11549 12.1891 11.4464 10.0449 11.8078C9.48464 11.9032 8.98579 11.8693 8.54111 11.6704C8.31957 11.5701 8.17404 11.4586 7.942 11.2257L7.68489 10.9646L7.56847 10.8578C7.51973 10.8157 7.46783 10.7773 7.41323 10.743C7.19008 10.6031 6.8683 10.5878 6.36136 10.6622L6.14387 10.6977L6.0234 10.722C5.94821 10.7406 5.92962 10.7584 5.92557 10.7867C5.91473 10.8627 5.91121 10.9396 5.91506 11.0163L5.94174 11.4432L5.9466 11.5645L5.99187 12.1741L5.9943 12.2355C6.0137 12.6511 5.97974 12.9632 5.85523 13.2332C5.63694 13.7086 5.14536 13.9835 4.57374 14.0337C4.02752 14.0766 3.4859 13.9062 3.06264 13.5583C2.80391 13.3472 2.2897 13.2882 2.13123 13.5073C2.10409 13.5451 2.07351 13.5803 2.03987 13.6124C2.78999 15.162 4.00417 16.4394 5.51368 17.2672C7.0232 18.095 8.75307 18.432 10.4629 18.2314C10.4556 18.225 10.4481 18.2188 10.4403 18.2129L9.91477 17.8272L9.86302 17.7868C9.75626 17.7051 9.65939 17.6112 9.57438 17.507C9.20004 17.03 9.04643 16.4155 9.1103 15.7695C9.22025 14.6934 9.80238 13.6351 10.6521 12.9745C11.1397 12.5986 11.6709 12.4029 12.198 12.4651C12.6475 12.5169 13.0009 12.7481 13.3105 13.1394L13.4342 13.3084L13.5806 13.5308C13.739 13.7677 13.7924 13.7951 13.9872 13.7135C14.2322 13.6116 14.4497 13.4386 14.7294 13.1394L15.0189 12.8144C16.0869 11.596 16.83 10.9872 17.7379 10.9007C17.7703 10.6056 17.7872 10.3048 17.7872 10C17.7872 5.42383 14.0762 1.71277 9.5 1.71277ZM17.4315 12.4094L17.3684 12.4417C17.0725 12.6058 16.754 12.8993 16.3529 13.3505L15.6762 14.1266L15.5145 14.3021L15.39 14.4258L15.314 14.4921L15.1474 14.6231C14.5354 15.0839 13.8934 15.2877 13.3016 15.0766C12.9685 14.9594 12.7785 14.784 12.5125 14.4072L12.2586 14.0401C12.2464 14.0233 12.234 14.0066 12.2214 13.99C12.0395 13.7563 11.7315 13.8396 11.3596 14.1946C10.9746 14.5631 10.6973 15.0296 10.5575 15.544C10.4112 16.0873 10.4912 16.5045 10.83 16.8335L10.965 16.9548L11.3127 17.2378C11.6304 17.4949 11.8414 17.6954 11.9821 17.9089C13.2687 17.5037 14.4372 16.7914 15.3867 15.8333C16.3362 14.8752 17.038 13.7003 17.4315 12.4102V12.4094ZM3.77898 4.0057L3.63991 4.14072C2.86933 4.90934 2.25822 5.82265 1.84169 6.82818C1.42516 7.8337 1.21143 8.91162 1.21277 10C1.21277 10.7713 1.31787 11.5184 1.51515 12.2266C1.93072 11.9275 2.43685 11.7302 2.82009 11.7925C3.10306 11.8386 3.28498 11.9396 3.55179 12.1676L3.686 12.2857C3.89379 12.4732 3.99162 12.5468 4.1226 12.601C4.28915 12.6689 4.48966 12.681 4.59153 12.6285L4.59719 12.6083L4.60285 12.5452V12.4951L4.598 12.3916L4.57294 12.1183L4.56162 11.8919L4.52766 11.4173L4.52038 11.2928C4.50098 10.8764 4.52604 10.5611 4.62468 10.2757C4.93191 9.38634 6.07677 9.11145 7.29034 9.27315C7.76817 9.33702 8.16353 9.53834 8.53787 9.88762L8.67694 10.0251C9.04077 10.4018 9.28009 10.5134 9.68919 10.4617C10.4896 10.363 11.248 9.83426 11.6434 9.10902C12.0072 8.43957 11.5197 7.78549 10.7314 7.75557L10.5737 7.75719L9.83957 7.79762C8.87421 7.83481 8.26298 7.65694 7.83123 7.0263C7.68396 6.80752 7.59056 6.55699 7.55866 6.2952C7.52676 6.03341 7.55727 5.76778 7.6477 5.52004C7.69864 5.38179 7.7617 5.27102 7.86357 5.13438L8.01153 4.94438L7.942 4.89102C7.56766 4.57975 7.28711 4.50375 6.91519 4.63553L6.71549 4.71153L6.41957 4.83443C6.00481 5.00664 5.74285 5.08506 5.42511 5.10528C4.71685 5.15055 4.08945 4.65898 3.77898 4.00489V4.0057Z"
        fill="white" />
</svg>