<svg width="600" height="898" viewBox="0 0 600 898" fill="none" xmlns="http://www.w3.org/2000/svg">
<circle cx="209.752" cy="209.752" r="209.552" transform="matrix(1 0 0 -1 503 658.752)" stroke="#2B6A4E" stroke-width="0.4"/>
<circle cx="283.493" cy="283.493" r="283.293" transform="matrix(1 0 0 -1 356 732.493)" stroke="#2B6A4E" stroke-width="0.4"/>
<circle cx="365.427" cy="365.427" r="365.227" transform="matrix(1 0 0 -1 192 814.427)" stroke="#2B6A4E" stroke-width="0.4"/>
<path d="M922.8 449C922.8 201.135 721.865 0.200073 474 0.200073C226.135 0.200073 25.2 201.135 25.2 449C25.2 696.865 226.135 897.8 474 897.8C721.865 897.8 922.8 696.865 922.8 449Z" stroke="#2B6A4E" stroke-width="0.4"/>
<circle cx="24" cy="24" r="24.48" transform="matrix(1 0 0 -1 185 838)" fill="#0E271D" stroke="#05BC73" stroke-width="0.96"/>
<circle cx="10.08" cy="10.08" r="10.08" transform="matrix(1 0 0 -1 198.92 824.08)" fill="#E3F7DD"/>
<path d="M77.5 635.52C90.7533 635.52 101.48 646.49 101.48 660C101.48 673.51 90.7533 684.48 77.5 684.48C64.2467 684.48 53.52 673.51 53.52 660C53.52 646.49 64.2467 635.52 77.5 635.52Z" fill="#0E271D" stroke="#05BC73" stroke-width="0.96"/>
<ellipse cx="9.87" cy="10.08" rx="9.87" ry="10.08" transform="matrix(1 0 0 -1 67.6299 670.08)" fill="#E3F7DD"/>
<circle cx="24" cy="24" r="24.48" transform="matrix(1 0 0 -1 1 473)" fill="#0E271D" stroke="#05BC73" stroke-width="0.96"/>
<circle cx="10.08" cy="10.08" r="10.08" transform="matrix(1 0 0 -1 14.9199 459.08)" fill="#E3F7DD"/>
<path d="M77.5 214.52C90.7533 214.52 101.48 225.49 101.48 239C101.48 252.511 90.7533 263.48 77.5 263.48C64.2467 263.48 53.52 252.511 53.52 239C53.52 225.49 64.2467 214.52 77.5 214.52Z" fill="#0E271D" stroke="#05BC73" stroke-width="0.96"/>
<ellipse cx="9.87" cy="10.08" rx="9.87" ry="10.08" transform="matrix(1 0 0 -1 67.6299 249.08)" fill="#E3F7DD"/>
<path d="M210 59.52C222.987 59.52 233.48 70.4995 233.48 84C233.48 97.5005 222.987 108.48 210 108.48C197.013 108.48 186.52 97.5005 186.52 84C186.52 70.4995 197.013 59.52 210 59.52Z" fill="#0E271D" stroke="#05BC73" stroke-width="0.96"/>
<ellipse cx="9.66" cy="10.08" rx="9.66" ry="10.08" transform="matrix(1 0 0 -1 200.34 94.0801)" fill="#E3F7DD"/>
</svg>
