<svg width="36" height="36" viewBox="0 0 36 36" fill="none" xmlns="http://www.w3.org/2000/svg">
<path d="M36 18C36 8.0595 27.9405 0 18 0C8.0595 0 0 8.0595 0 18C0 27.9405 8.0595 36 18 36C27.9405 36 36 27.9405 36 18Z" fill="#2BD2C2"/>
<path d="M23.5889 13.185C23.8714 12.8771 24.2646 12.694 24.6821 12.676C25.0995 12.658 25.507 12.8066 25.8149 13.089C26.1229 13.3715 26.306 13.7647 26.324 14.1822C26.342 14.5996 26.1934 15.0071 25.9109 15.3151L17.6609 24.3151C17.5172 24.4716 17.3433 24.5974 17.1496 24.6849C16.956 24.7724 16.7466 24.8198 16.5342 24.8243C16.3217 24.8288 16.1106 24.7902 15.9134 24.711C15.7162 24.6317 15.5372 24.5133 15.3869 24.363L10.8869 19.863C10.7349 19.7182 10.6133 19.5444 10.5294 19.3519C10.4455 19.1594 10.4009 18.952 10.3983 18.742C10.3957 18.532 10.4352 18.3236 10.5143 18.1291C10.5934 17.9345 10.7107 17.7578 10.8591 17.6092C11.0076 17.4607 11.1842 17.3433 11.3787 17.2641C11.5732 17.1848 11.7816 17.1452 11.9916 17.1477C12.2016 17.1501 12.409 17.1945 12.6015 17.2783C12.7941 17.3621 12.968 17.4836 13.1129 17.6355L16.4504 20.973L23.5889 13.185Z" fill="white"/>
</svg>
