<svg width="32" height="33" viewBox="0 0 32 33" fill="none" xmlns="http://www.w3.org/2000/svg">
<path d="M1.77778 14.7222C1.30628 14.7222 0.854097 14.9095 0.520699 15.2429C0.187301 15.5763 0 16.0285 0 16.5C0 16.9715 0.187301 17.4237 0.520699 17.7571C0.854097 18.0905 1.30628 18.2778 1.77778 18.2778V14.7222ZM30.2222 18.2778C30.6937 18.2778 31.1459 18.0905 31.4793 17.7571C31.8127 17.4237 32 16.9715 32 16.5C32 16.0285 31.8127 15.5763 31.4793 15.2429C31.1459 14.9095 30.6937 14.7222 30.2222 14.7222V18.2778ZM17.7778 2.27778C17.7778 1.80628 17.5905 1.3541 17.2571 1.0207C16.9237 0.687301 16.4715 0.5 16 0.5C15.5285 0.5 15.0763 0.687301 14.7429 1.0207C14.4095 1.3541 14.2222 1.80628 14.2222 2.27778H17.7778ZM14.2222 30.7222C14.2222 31.1937 14.4095 31.6459 14.7429 31.9793C15.0763 32.3127 15.5285 32.5 16 32.5C16.4715 32.5 16.9237 32.3127 17.2571 31.9793C17.5905 31.6459 17.7778 31.1937 17.7778 30.7222H14.2222ZM1.77778 18.2778H16V14.7222H1.77778V18.2778ZM16 18.2778H30.2222V14.7222H16V18.2778ZM17.7778 16.5V2.27778H14.2222V16.5H17.7778ZM14.2222 16.5V30.7222H17.7778V16.5H14.2222Z" fill="white"/>
</svg>
