<svg width="72" height="73" viewBox="0 0 72 73" fill="none" xmlns="http://www.w3.org/2000/svg">
<path d="M36 72.5004C55.8823 72.5004 72 56.3825 72 36.5002C72 16.6178 55.8823 0.5 36 0.5C16.1178 0.5 0 16.6178 0 36.5002C0 56.3825 16.1178 72.5004 36 72.5004Z" fill="white"/>
<path d="M26.8442 51.4624V21.5376C26.8456 21.4146 26.8796 21.2942 26.9429 21.1887C27.0063 21.0833 27.0965 20.9966 27.2044 20.9376C27.3123 20.8786 27.434 20.8495 27.557 20.8531C27.6799 20.8567 27.7996 20.893 27.9039 20.9583L51.4565 35.9207C51.5527 35.9837 51.6317 36.0696 51.6864 36.1707C51.741 36.2719 51.7697 36.385 51.7697 36.5C51.7697 36.615 51.741 36.7281 51.6864 36.8293C51.6317 36.9304 51.5527 37.0163 51.4565 37.0793L27.9039 52.0417C27.7996 52.1069 27.6799 52.1433 27.557 52.1469C27.434 52.1505 27.3123 52.1213 27.2044 52.0624C27.0965 52.0034 27.0063 51.9167 26.9429 51.8112C26.8796 51.7058 26.8456 51.5854 26.8442 51.4624Z" fill="#2BD2C2"/>
</svg>
